<svg width="14" height="14" viewBox="0 0 14 14" fill="none" xmlns="http://www.w3.org/2000/svg">
<path fill-rule="evenodd" clip-rule="evenodd" d="M9.07 7.9525L13.3675 12.25L12.25 13.3675L7.9525 9.07C7.15 9.6475 6.1825 10 5.125 10C2.4325 10 0.25 7.8175 0.25 5.125C0.25 2.4325 2.4325 0.25 5.125 0.25C7.8175 0.25 10 2.4325 10 5.125C10 6.1825 9.6475 7.15 9.07 7.9525ZM5.125 1.75C3.2575 1.75 1.75 3.2575 1.75 5.125C1.75 6.9925 3.2575 8.5 5.125 8.5C6.9925 8.5 8.5 6.9925 8.5 5.125C8.5 3.2575 6.9925 1.75 5.125 1.75Z" fill="#414141"/>
</svg>
